<svg width="693" height="131" viewBox="0 0 693 131" fill="none" xmlns="http://www.w3.org/2000/svg">
<path d="M256.311 81.4316C256.128 80.7936 255.946 80.2467 255.764 79.791C255.581 79.3125 255.388 78.891 255.183 78.5264C255 78.139 254.784 77.7972 254.533 77.501C254.305 77.2048 254.032 76.8971 253.713 76.5781C252.938 75.7806 252.049 75.1882 251.047 74.8008C250.067 74.3906 249.019 74.1855 247.902 74.1855C246.49 74.1855 245.202 74.459 244.04 75.0059C242.901 75.5527 241.921 76.3389 241.101 77.3643C240.303 78.3669 239.688 79.5859 239.255 81.0215C238.822 82.457 238.605 84.0521 238.605 85.8066C238.605 88.0853 238.913 90.0791 239.528 91.7881C240.144 93.4971 241.021 94.8301 242.16 95.7871C243.869 97.1543 245.909 97.8379 248.278 97.8379C249.896 97.8379 251.389 97.5303 252.756 96.915C254.123 96.2998 255.536 95.2972 256.994 93.9072L257.678 94.5908C256.493 96.1631 254.978 97.3822 253.132 98.248C251.309 99.1139 249.281 99.5469 247.048 99.5469C245.111 99.5469 243.345 99.2279 241.75 98.5898C240.155 97.9518 238.788 97.0632 237.648 95.9238C236.509 94.7617 235.62 93.3717 234.982 91.7539C234.367 90.1361 234.06 88.3359 234.06 86.3535C234.06 84.0977 234.447 82.0697 235.222 80.2695C235.996 78.4466 237.136 76.9199 238.64 75.6895C239.825 74.7324 241.158 73.9919 242.639 73.4678C244.12 72.9209 245.612 72.6475 247.116 72.6475C249.053 72.6475 250.967 72.9665 252.858 73.6045C253.496 73.8324 254.009 73.9463 254.396 73.9463C254.784 73.9463 255.114 73.8324 255.388 73.6045C255.684 73.3766 255.889 73.0576 256.003 72.6475H256.823L257.199 81.4316H256.311ZM286.803 99H276.857V98.2822C277.198 98.2822 277.483 98.2822 277.711 98.2822C277.939 98.2594 278.121 98.2367 278.258 98.2139C278.418 98.1683 278.554 98.1341 278.668 98.1113C278.782 98.0658 278.896 98.0088 279.01 97.9404C279.192 97.8265 279.329 97.6898 279.42 97.5303C279.534 97.348 279.591 97.1657 279.591 96.9834C279.591 96.3454 279.34 95.4567 278.839 94.3174L277.198 90.5918H267.013L265.201 95.1377C265.11 95.3883 265.03 95.6504 264.962 95.9238C264.917 96.1745 264.894 96.4251 264.894 96.6758C264.894 97.1999 265.099 97.5986 265.509 97.8721C265.919 98.1455 266.603 98.2822 267.56 98.2822V99H259.801V98.2822C260.279 98.2594 260.69 98.1797 261.031 98.043C261.373 97.9062 261.715 97.6214 262.057 97.1885C262.399 96.7327 262.763 96.0947 263.151 95.2744C263.561 94.4313 264.073 93.292 264.689 91.8564L272.789 72.7158H273.541L283.282 94.8643C283.601 95.5934 283.875 96.1745 284.103 96.6074C284.353 97.0404 284.604 97.3822 284.855 97.6328C285.105 97.8607 285.379 98.0202 285.675 98.1113C285.994 98.2025 286.37 98.2594 286.803 98.2822V99ZM276.686 89.0195L272.174 78.2529L267.662 89.0195H276.686ZM295.147 94.7959C295.147 95.5023 295.192 96.0833 295.284 96.5391C295.375 96.972 295.546 97.3138 295.796 97.5645C296.07 97.8151 296.446 97.9974 296.924 98.1113C297.403 98.2025 298.029 98.2594 298.804 98.2822V99H287.867V98.2822C288.619 98.2139 289.2 98.1227 289.61 98.0088C290.043 97.8949 290.373 97.7012 290.601 97.4277C290.829 97.1543 290.966 96.7783 291.011 96.2998C291.079 95.7985 291.114 95.1377 291.114 94.3174V77.4326C291.114 76.7262 291.079 76.168 291.011 75.7578C290.943 75.3249 290.795 74.9945 290.567 74.7666C290.339 74.516 290.009 74.3337 289.576 74.2197C289.143 74.1058 288.573 74.0146 287.867 73.9463V73.1602H298.155C300.092 73.1602 301.835 73.4336 303.384 73.9805C304.956 74.5273 306.141 75.2451 306.939 76.1338C307.919 77.2959 308.409 78.6631 308.409 80.2354C308.409 81.5342 308.067 82.7419 307.383 83.8584C306.722 84.9521 305.811 85.818 304.649 86.4561C303.806 86.9118 302.837 87.2422 301.744 87.4473C300.673 87.6523 299.362 87.7549 297.813 87.7549C297.312 87.7549 296.867 87.7549 296.48 87.7549C296.115 87.7321 295.671 87.7093 295.147 87.6865V94.7959ZM295.147 86.0801C295.603 86.1257 295.979 86.1598 296.275 86.1826C296.594 86.2054 296.947 86.2168 297.334 86.2168C301.869 86.2168 304.136 84.3027 304.136 80.4746C304.136 78.4466 303.51 76.9655 302.256 76.0312C301.026 75.097 299.078 74.6299 296.412 74.6299C295.887 74.6299 295.546 74.721 295.386 74.9033C295.227 75.0628 295.147 75.416 295.147 75.9629V86.0801ZM313.608 77.4326C313.608 76.7035 313.562 76.1224 313.471 75.6895C313.403 75.2565 313.232 74.9147 312.959 74.6641C312.685 74.4134 312.298 74.2425 311.796 74.1514C311.295 74.0602 310.634 73.9919 309.814 73.9463V73.1602H321.401V73.9463C320.581 73.9691 319.92 74.0374 319.419 74.1514C318.917 74.2425 318.53 74.4134 318.256 74.6641C317.983 74.9147 317.801 75.2679 317.71 75.7236C317.618 76.1566 317.573 76.7262 317.573 77.4326V94.7959C317.573 95.5023 317.618 96.0833 317.71 96.5391C317.824 96.972 318.017 97.3138 318.291 97.5645C318.564 97.8151 318.951 97.9974 319.453 98.1113C319.954 98.2025 320.603 98.2594 321.401 98.2822V99H309.814V98.2822C310.634 98.2594 311.295 98.2025 311.796 98.1113C312.298 97.9974 312.674 97.8151 312.924 97.5645C313.198 97.3138 313.38 96.972 313.471 96.5391C313.562 96.1061 313.608 95.5251 313.608 94.7959V77.4326ZM330.121 74.8008C329.027 74.8008 328.127 74.8577 327.421 74.9717C326.737 75.0856 326.167 75.3249 325.712 75.6895C325.279 76.054 324.926 76.5667 324.652 77.2275C324.401 77.8656 324.162 78.7201 323.934 79.791H322.977L323.217 73.1602H345.228L345.468 79.791H344.511C344.283 78.7201 344.032 77.8656 343.759 77.2275C343.508 76.5667 343.166 76.054 342.733 75.6895C342.3 75.3249 341.731 75.0856 341.024 74.9717C340.318 74.8577 339.406 74.8008 338.29 74.8008H336.205V94.7959C336.205 95.5023 336.25 96.0719 336.342 96.5049C336.433 96.9378 336.604 97.2796 336.854 97.5303C337.128 97.7809 337.504 97.9632 337.982 98.0771C338.484 98.1683 339.133 98.2367 339.93 98.2822V99H328.583V98.2822C329.38 98.2367 330.018 98.1683 330.497 98.0771C330.975 97.9632 331.34 97.7695 331.591 97.4961C331.864 97.1999 332.035 96.8011 332.103 96.2998C332.194 95.7985 332.24 95.1377 332.24 94.3174V74.8008H330.121ZM373.943 99H363.997V98.2822C364.339 98.2822 364.624 98.2822 364.852 98.2822C365.079 98.2594 365.262 98.2367 365.398 98.2139C365.558 98.1683 365.695 98.1341 365.809 98.1113C365.923 98.0658 366.036 98.0088 366.15 97.9404C366.333 97.8265 366.469 97.6898 366.561 97.5303C366.674 97.348 366.731 97.1657 366.731 96.9834C366.731 96.3454 366.481 95.4567 365.979 94.3174L364.339 90.5918H354.153L352.342 95.1377C352.251 95.3883 352.171 95.6504 352.103 95.9238C352.057 96.1745 352.034 96.4251 352.034 96.6758C352.034 97.1999 352.239 97.5986 352.649 97.8721C353.06 98.1455 353.743 98.2822 354.7 98.2822V99H346.941V98.2822C347.42 98.2594 347.83 98.1797 348.172 98.043C348.514 97.9062 348.855 97.6214 349.197 97.1885C349.539 96.7327 349.904 96.0947 350.291 95.2744C350.701 94.4313 351.214 93.292 351.829 91.8564L359.93 72.7158H360.682L370.423 94.8643C370.742 95.5934 371.015 96.1745 371.243 96.6074C371.494 97.0404 371.744 97.3822 371.995 97.6328C372.246 97.8607 372.519 98.0202 372.815 98.1113C373.134 98.2025 373.51 98.2594 373.943 98.2822V99ZM363.826 89.0195L359.314 78.2529L354.803 89.0195H363.826ZM397.737 92.2324L395.822 99H374.87V98.2822C375.577 98.2367 376.146 98.1569 376.579 98.043C377.035 97.929 377.377 97.7467 377.605 97.4961C377.855 97.2454 378.026 96.9036 378.117 96.4707C378.209 96.0378 378.254 95.4795 378.254 94.7959V77.4326C378.254 76.749 378.209 76.1908 378.117 75.7578C378.049 75.3249 377.89 74.9831 377.639 74.7324C377.388 74.4818 377.035 74.2995 376.579 74.1855C376.146 74.0716 375.577 73.9919 374.87 73.9463V73.1602H385.842V73.9463C385.067 73.9919 384.441 74.0716 383.962 74.1855C383.484 74.2767 383.119 74.459 382.868 74.7324C382.618 74.9831 382.447 75.3249 382.356 75.7578C382.265 76.1908 382.219 76.749 382.219 77.4326V95.8896C382.219 96.2314 382.253 96.5163 382.321 96.7441C382.413 96.9492 382.584 97.1087 382.834 97.2227C383.085 97.3366 383.427 97.4163 383.86 97.4619C384.293 97.4847 384.874 97.4961 385.603 97.4961H388.2C389.864 97.4961 391.242 97.3024 392.336 96.915C393.453 96.5277 394.364 95.9352 395.071 95.1377C395.344 94.8187 395.606 94.4199 395.857 93.9414C396.13 93.4629 396.426 92.8932 396.745 92.2324H397.737ZM425.157 99H424.576L414.766 77.5693V93.2578C414.766 94.2604 414.812 95.0807 414.903 95.7188C415.017 96.334 415.211 96.8239 415.484 97.1885C415.757 97.5531 416.133 97.8151 416.612 97.9746C417.09 98.1341 417.706 98.2367 418.458 98.2822V99H409.297V98.2822C410.095 98.2139 410.733 98.1113 411.212 97.9746C411.713 97.8151 412.089 97.5531 412.339 97.1885C412.613 96.8239 412.795 96.334 412.886 95.7188C412.977 95.0807 413.023 94.2604 413.023 93.2578V77.4326C413.023 76.7262 412.977 76.1566 412.886 75.7236C412.818 75.2907 412.647 74.9489 412.374 74.6982C412.123 74.4476 411.758 74.2767 411.28 74.1855C410.801 74.0716 410.163 73.9919 409.366 73.9463V73.1602H417.09L426.08 92.8818L434.761 73.1602H442.486V73.9463C441.757 73.9919 441.176 74.0716 440.743 74.1855C440.31 74.2995 439.968 74.4818 439.717 74.7324C439.467 74.9831 439.296 75.3249 439.205 75.7578C439.136 76.1908 439.102 76.749 439.102 77.4326V94.7959C439.102 95.4795 439.148 96.0378 439.239 96.4707C439.33 96.9036 439.49 97.2454 439.717 97.4961C439.968 97.7467 440.31 97.929 440.743 98.043C441.198 98.1569 441.78 98.2367 442.486 98.2822V99H431.548V98.2822C432.323 98.2367 432.938 98.1569 433.394 98.043C433.873 97.929 434.237 97.7354 434.488 97.4619C434.739 97.1657 434.898 96.7783 434.966 96.2998C435.058 95.7985 435.103 95.1377 435.103 94.3174V76.6465L425.157 99ZM471.338 99H461.391V98.2822C461.733 98.2822 462.018 98.2822 462.246 98.2822C462.474 98.2594 462.656 98.2367 462.793 98.2139C462.952 98.1683 463.089 98.1341 463.203 98.1113C463.317 98.0658 463.431 98.0088 463.545 97.9404C463.727 97.8265 463.864 97.6898 463.955 97.5303C464.069 97.348 464.126 97.1657 464.126 96.9834C464.126 96.3454 463.875 95.4567 463.374 94.3174L461.733 90.5918H451.548L449.736 95.1377C449.645 95.3883 449.565 95.6504 449.497 95.9238C449.451 96.1745 449.429 96.4251 449.429 96.6758C449.429 97.1999 449.634 97.5986 450.044 97.8721C450.454 98.1455 451.137 98.2822 452.095 98.2822V99H444.336V98.2822C444.814 98.2594 445.224 98.1797 445.566 98.043C445.908 97.9062 446.25 97.6214 446.592 97.1885C446.933 96.7327 447.298 96.0947 447.685 95.2744C448.096 94.4313 448.608 93.292 449.223 91.8564L457.324 72.7158H458.076L467.817 94.8643C468.136 95.5934 468.41 96.1745 468.637 96.6074C468.888 97.0404 469.139 97.3822 469.389 97.6328C469.64 97.8607 469.914 98.0202 470.21 98.1113C470.529 98.2025 470.905 98.2594 471.338 98.2822V99ZM461.221 89.0195L456.709 78.2529L452.197 89.0195H461.221ZM494.994 99.4443L477.733 77.9795V93.2578C477.733 94.2604 477.779 95.0807 477.87 95.7188C477.984 96.334 478.178 96.8239 478.451 97.1885C478.725 97.5531 479.101 97.8151 479.579 97.9746C480.058 98.1341 480.673 98.2367 481.425 98.2822V99H472.265V98.2822C473.062 98.2139 473.7 98.1113 474.179 97.9746C474.68 97.8151 475.056 97.5531 475.307 97.1885C475.58 96.8239 475.762 96.334 475.854 95.7188C475.945 95.0807 475.99 94.2604 475.99 93.2578V76.0996C475.603 75.6439 475.272 75.2793 474.999 75.0059C474.726 74.7096 474.452 74.4932 474.179 74.3564C473.905 74.1969 473.62 74.0944 473.324 74.0488C473.028 73.9805 472.675 73.9463 472.265 73.9463V73.1602H478.93L493.935 92.0615V78.9023C493.935 76.5326 493.559 75.0742 492.807 74.5273C492.51 74.3451 492.18 74.2197 491.815 74.1514C491.474 74.0602 490.938 73.9919 490.209 73.9463V73.1602H499.335V73.9463C498.606 73.9919 498.059 74.0716 497.694 74.1855C497.353 74.2995 497.056 74.4476 496.806 74.6299C496.031 75.1312 495.644 76.5553 495.644 78.9023V99.4443H494.994ZM527.742 99H517.796V98.2822C518.138 98.2822 518.423 98.2822 518.651 98.2822C518.878 98.2594 519.061 98.2367 519.197 98.2139C519.357 98.1683 519.494 98.1341 519.608 98.1113C519.722 98.0658 519.835 98.0088 519.949 97.9404C520.132 97.8265 520.268 97.6898 520.36 97.5303C520.473 97.348 520.53 97.1657 520.53 96.9834C520.53 96.3454 520.28 95.4567 519.779 94.3174L518.138 90.5918H507.952L506.141 95.1377C506.05 95.3883 505.97 95.6504 505.902 95.9238C505.856 96.1745 505.833 96.4251 505.833 96.6758C505.833 97.1999 506.038 97.5986 506.448 97.8721C506.859 98.1455 507.542 98.2822 508.499 98.2822V99H500.74V98.2822C501.219 98.2594 501.629 98.1797 501.971 98.043C502.313 97.9062 502.654 97.6214 502.996 97.1885C503.338 96.7327 503.703 96.0947 504.09 95.2744C504.5 94.4313 505.013 93.292 505.628 91.8564L513.729 72.7158H514.481L524.222 94.8643C524.541 95.5934 524.814 96.1745 525.042 96.6074C525.293 97.0404 525.543 97.3822 525.794 97.6328C526.045 97.8607 526.318 98.0202 526.614 98.1113C526.933 98.2025 527.309 98.2594 527.742 98.2822V99ZM517.625 89.0195L513.113 78.2529L508.602 89.0195H517.625ZM555.842 85.9092C555.273 85.9548 554.805 86.0345 554.441 86.1484C554.099 86.2396 553.826 86.3991 553.621 86.627C553.438 86.832 553.313 87.1283 553.245 87.5156C553.176 87.8802 553.142 88.3473 553.142 88.917V96.8125C552.755 97.1543 552.185 97.4961 551.433 97.8379C550.681 98.1569 549.838 98.4531 548.904 98.7266C547.992 98.9772 547.047 99.1709 546.067 99.3076C545.11 99.4671 544.21 99.5469 543.367 99.5469C541.202 99.5469 539.197 99.1937 537.351 98.4873C535.528 97.7809 533.967 96.7441 532.668 95.377C531.575 94.2148 530.766 92.8932 530.242 91.4121C529.718 89.931 529.455 88.2448 529.455 86.3535C529.455 84.3483 529.786 82.514 530.447 80.8506C531.107 79.1644 532.019 77.7174 533.181 76.5098C534.366 75.3021 535.767 74.3564 537.385 73.6729C539.026 72.9893 540.826 72.6475 542.786 72.6475C544.563 72.6475 546.34 72.9437 548.118 73.5361C548.87 73.8096 549.451 73.9463 549.861 73.9463C550.271 73.9463 550.635 73.821 550.954 73.5703C551.274 73.3197 551.49 73.012 551.604 72.6475H552.424L552.766 80.8848H551.877C551.627 80.2923 551.399 79.7796 551.194 79.3467C550.989 78.891 550.772 78.4922 550.544 78.1504C550.339 77.7858 550.123 77.4668 549.895 77.1934C549.667 76.8971 549.405 76.6123 549.109 76.3389C547.559 74.9033 545.679 74.1855 543.469 74.1855C542.056 74.1855 540.746 74.459 539.538 75.0059C538.354 75.5527 537.34 76.3389 536.496 77.3643C535.699 78.3441 535.061 79.6429 534.582 81.2607C534.104 82.8558 533.865 84.5306 533.865 86.2852C533.865 88.1081 534.104 89.7487 534.582 91.207C535.061 92.6426 535.745 93.8617 536.633 94.8643C537.522 95.8669 538.593 96.6416 539.846 97.1885C541.122 97.7354 542.558 98.0088 544.153 98.0088C544.859 98.0088 545.52 97.9518 546.135 97.8379C546.773 97.7012 547.331 97.5303 547.81 97.3252C548.288 97.1201 548.664 96.8809 548.938 96.6074C549.211 96.3112 549.348 96.0036 549.348 95.6846V89.3613C549.348 88.6549 549.314 88.0853 549.246 87.6523C549.177 87.2194 549.018 86.889 548.767 86.6611C548.539 86.4105 548.197 86.2396 547.742 86.1484C547.286 86.0345 546.671 85.9548 545.896 85.9092V85.1914H555.842V85.9092ZM578.063 99H557.008V98.2822C557.715 98.2367 558.284 98.1569 558.717 98.043C559.173 97.929 559.515 97.7467 559.743 97.4961C559.993 97.2454 560.164 96.9036 560.255 96.4707C560.347 96.0378 560.392 95.4795 560.392 94.7959V77.4326C560.392 76.749 560.347 76.1908 560.255 75.7578C560.187 75.3249 560.028 74.9831 559.777 74.7324C559.526 74.4818 559.173 74.2995 558.717 74.1855C558.284 74.0716 557.715 73.9919 557.008 73.9463V73.1602H577.721L577.79 78.7656H576.867C576.684 77.877 576.479 77.1706 576.252 76.6465C576.024 76.0996 575.693 75.6781 575.26 75.3818C574.85 75.0856 574.292 74.8919 573.586 74.8008C572.902 74.7096 572.013 74.6641 570.92 74.6641H565.656C565.132 74.6641 564.779 74.7438 564.596 74.9033C564.437 75.0628 564.357 75.4274 564.357 75.9971V84.6445H570.338C571.136 84.6445 571.785 84.599 572.287 84.5078C572.788 84.4167 573.187 84.2458 573.483 83.9951C573.802 83.7217 574.041 83.3457 574.201 82.8672C574.36 82.3887 574.508 81.7507 574.645 80.9531H575.568V90.0107H574.645C574.508 89.1904 574.36 88.541 574.201 88.0625C574.041 87.5612 573.813 87.1852 573.517 86.9346C573.221 86.6611 572.822 86.4788 572.321 86.3877C571.82 86.2965 571.159 86.251 570.338 86.251H564.357V95.8896C564.357 96.277 564.38 96.5618 564.425 96.7441C564.471 96.9264 564.551 97.0632 564.665 97.1543C564.847 97.2682 565.28 97.3708 565.963 97.4619C566.67 97.5303 567.502 97.5645 568.459 97.5645H569.552C570.942 97.5645 572.104 97.4961 573.039 97.3594C573.996 97.2227 574.805 96.9606 575.465 96.5732C576.149 96.1859 576.741 95.6618 577.243 95.001C577.744 94.3402 578.234 93.4743 578.712 92.4033H579.84L578.063 99ZM596.866 99H596.285L586.475 77.5693V93.2578C586.475 94.2604 586.521 95.0807 586.612 95.7188C586.726 96.334 586.92 96.8239 587.193 97.1885C587.467 97.5531 587.843 97.8151 588.321 97.9746C588.8 98.1341 589.415 98.2367 590.167 98.2822V99H581.007V98.2822C581.804 98.2139 582.442 98.1113 582.921 97.9746C583.422 97.8151 583.798 97.5531 584.049 97.1885C584.322 96.8239 584.504 96.334 584.596 95.7188C584.687 95.0807 584.732 94.2604 584.732 93.2578V77.4326C584.732 76.7262 584.687 76.1566 584.596 75.7236C584.527 75.2907 584.356 74.9489 584.083 74.6982C583.832 74.4476 583.468 74.2767 582.989 74.1855C582.511 74.0716 581.873 73.9919 581.075 73.9463V73.1602H588.8L597.789 92.8818L606.471 73.1602H614.195V73.9463C613.466 73.9919 612.885 74.0716 612.452 74.1855C612.019 74.2995 611.677 74.4818 611.427 74.7324C611.176 74.9831 611.005 75.3249 610.914 75.7578C610.846 76.1908 610.811 76.749 610.811 77.4326V94.7959C610.811 95.4795 610.857 96.0378 610.948 96.4707C611.039 96.9036 611.199 97.2454 611.427 97.4961C611.677 97.7467 612.019 97.929 612.452 98.043C612.908 98.1569 613.489 98.2367 614.195 98.2822V99H603.258V98.2822C604.032 98.2367 604.648 98.1569 605.103 98.043C605.582 97.929 605.946 97.7354 606.197 97.4619C606.448 97.1657 606.607 96.7783 606.676 96.2998C606.767 95.7985 606.812 95.1377 606.812 94.3174V76.6465L596.866 99ZM636.963 99H615.908V98.2822C616.615 98.2367 617.184 98.1569 617.617 98.043C618.073 97.929 618.415 97.7467 618.643 97.4961C618.893 97.2454 619.064 96.9036 619.155 96.4707C619.246 96.0378 619.292 95.4795 619.292 94.7959V77.4326C619.292 76.749 619.246 76.1908 619.155 75.7578C619.087 75.3249 618.927 74.9831 618.677 74.7324C618.426 74.4818 618.073 74.2995 617.617 74.1855C617.184 74.0716 616.615 73.9919 615.908 73.9463V73.1602H636.621L636.689 78.7656H635.767C635.584 77.877 635.379 77.1706 635.151 76.6465C634.924 76.0996 634.593 75.6781 634.16 75.3818C633.75 75.0856 633.192 74.8919 632.485 74.8008C631.802 74.7096 630.913 74.6641 629.819 74.6641H624.556C624.032 74.6641 623.678 74.7438 623.496 74.9033C623.337 75.0628 623.257 75.4274 623.257 75.9971V84.6445H629.238C630.036 84.6445 630.685 84.599 631.187 84.5078C631.688 84.4167 632.087 84.2458 632.383 83.9951C632.702 83.7217 632.941 83.3457 633.101 82.8672C633.26 82.3887 633.408 81.7507 633.545 80.9531H634.468V90.0107H633.545C633.408 89.1904 633.26 88.541 633.101 88.0625C632.941 87.5612 632.713 87.1852 632.417 86.9346C632.121 86.6611 631.722 86.4788 631.221 86.3877C630.719 86.2965 630.059 86.251 629.238 86.251H623.257V95.8896C623.257 96.277 623.28 96.5618 623.325 96.7441C623.371 96.9264 623.451 97.0632 623.564 97.1543C623.747 97.2682 624.18 97.3708 624.863 97.4619C625.57 97.5303 626.401 97.5645 627.358 97.5645H628.452C629.842 97.5645 631.004 97.4961 631.938 97.3594C632.896 97.2227 633.704 96.9606 634.365 96.5732C635.049 96.1859 635.641 95.6618 636.143 95.001C636.644 94.3402 637.134 93.4743 637.612 92.4033H638.74L636.963 99ZM662.636 99.4443L645.375 77.9795V93.2578C645.375 94.2604 645.421 95.0807 645.512 95.7188C645.626 96.334 645.82 96.8239 646.093 97.1885C646.366 97.5531 646.742 97.8151 647.221 97.9746C647.699 98.1341 648.315 98.2367 649.067 98.2822V99H639.906V98.2822C640.704 98.2139 641.342 98.1113 641.82 97.9746C642.322 97.8151 642.698 97.5531 642.948 97.1885C643.222 96.8239 643.404 96.334 643.495 95.7188C643.586 95.0807 643.632 94.2604 643.632 93.2578V76.0996C643.245 75.6439 642.914 75.2793 642.641 75.0059C642.367 74.7096 642.094 74.4932 641.82 74.3564C641.547 74.1969 641.262 74.0944 640.966 74.0488C640.67 73.9805 640.317 73.9463 639.906 73.9463V73.1602H646.571L661.576 92.0615V78.9023C661.576 76.5326 661.2 75.0742 660.448 74.5273C660.152 74.3451 659.822 74.2197 659.457 74.1514C659.115 74.0602 658.58 73.9919 657.851 73.9463V73.1602H666.977V73.9463C666.248 73.9919 665.701 74.0716 665.336 74.1855C664.994 74.2995 664.698 74.4476 664.447 74.6299C663.673 75.1312 663.285 76.5553 663.285 78.9023V99.4443H662.636ZM675.56 74.8008C674.466 74.8008 673.566 74.8577 672.86 74.9717C672.176 75.0856 671.607 75.3249 671.151 75.6895C670.718 76.054 670.365 76.5667 670.091 77.2275C669.841 77.8656 669.601 78.7201 669.373 79.791H668.416L668.656 73.1602H690.667L690.907 79.791H689.95C689.722 78.7201 689.471 77.8656 689.198 77.2275C688.947 76.5667 688.605 76.054 688.172 75.6895C687.739 75.3249 687.17 75.0856 686.463 74.9717C685.757 74.8577 684.845 74.8008 683.729 74.8008H681.644V94.7959C681.644 95.5023 681.69 96.0719 681.781 96.5049C681.872 96.9378 682.043 97.2796 682.293 97.5303C682.567 97.7809 682.943 97.9632 683.421 98.0771C683.923 98.1683 684.572 98.2367 685.37 98.2822V99H674.022V98.2822C674.819 98.2367 675.457 98.1683 675.936 98.0771C676.414 97.9632 676.779 97.7695 677.03 97.4961C677.303 97.1999 677.474 96.8011 677.542 96.2998C677.634 95.7985 677.679 95.1377 677.679 94.3174V74.8008H675.56Z" fill="#717171"/>
<rect x="1.5" y="13.5" width="220" height="107" fill="black" stroke="#616161" stroke-width="3"/>
<path d="M25.788 103V100.606C29.892 100.606 32.286 99.846 32.97 98.326V40.984C32.286 39.464 29.892 38.704 25.788 38.704V36.31H50.412V38.704C46.308 38.704 43.914 39.464 43.23 40.984V98.326C43.914 99.846 46.308 100.606 50.412 100.606V103H25.788ZM65.574 103V100.606C67.322 100.606 68.728 100.492 69.792 100.264L43.8 67.204L71.73 39.502C70.666 38.97 68.728 38.704 65.916 38.704V36.31H83.814V38.704C80.622 38.704 78.266 39.578 76.746 41.326L53.832 64.012L80.622 98.782C81.838 99.998 84.232 100.606 87.804 100.606V103H65.574ZM112.098 68.28C110.775 68.28 109.907 68.7553 109.494 69.706C109.08 70.6153 108.874 72.0827 108.874 74.108C108.874 75.7613 109.37 78.014 110.362 80.866C113.503 78.634 115.074 76.3193 115.074 73.922C115.074 72.3927 114.805 71.07 114.268 69.954C113.772 68.838 113.048 68.28 112.098 68.28ZM129.52 81.61V82.912C127.164 82.912 125.862 83.3047 125.614 84.09C123.712 90.166 121.728 94.6093 119.662 97.42C121.439 99.3213 122.906 100.272 124.064 100.272C125.634 100.272 126.709 100.127 127.288 99.838C127.908 99.5487 128.548 98.9287 129.21 97.978L129.954 98.598C129.375 100.169 128.61 101.409 127.66 102.318C126.709 103.186 125.345 103.62 123.568 103.62C121.212 103.62 118.876 102.669 116.562 100.768C114.206 102.669 111.478 103.62 108.378 103.62C99.9042 103.62 95.6676 100.789 95.6676 95.126C95.6676 93.8447 95.9362 92.6667 96.4736 91.592C97.0109 90.476 97.8582 89.422 99.0156 88.43C100.214 87.438 101.248 86.6527 102.116 86.074C103.025 85.454 104.306 84.648 105.96 83.656C104.513 79.6467 103.79 76.2987 103.79 73.612C103.79 68.6107 106.146 66.11 110.858 66.11C112.883 66.11 114.516 66.8333 115.756 68.28C117.037 69.6853 117.678 71.318 117.678 73.178C117.678 75.2033 117.099 76.9807 115.942 78.51C114.826 80.0393 113.255 81.5893 111.23 83.16C113.172 87.9547 115.549 92.1707 118.36 95.808C119.806 93.4933 121.398 89.5253 123.134 83.904C122.72 83.2427 121.46 82.912 119.352 82.912V81.61H129.52ZM115.136 99.466C112.036 96.366 109.328 91.9847 107.014 86.322C103.583 88.926 101.868 91.3853 101.868 93.7C101.868 98.5773 104.802 101.016 110.672 101.016C112.284 101.016 113.772 100.499 115.136 99.466ZM175.441 39.046C168.905 39.046 163.471 41.744 159.139 47.14C154.807 52.536 152.641 59.528 152.641 68.116C152.641 78.148 154.921 86.014 159.481 91.714C164.041 97.414 169.513 100.264 175.897 100.264C179.697 100.264 183.459 98.972 187.183 96.388C190.907 93.728 193.301 90.916 194.365 87.952L197.101 89.32C195.353 93.5 192.579 97.034 188.779 99.922C185.055 102.734 180.001 104.14 173.617 104.14C163.509 104.14 155.491 100.872 149.563 94.336C143.711 87.724 140.785 79.82 140.785 70.624C140.785 59.984 144.167 51.434 150.931 44.974C157.771 38.438 165.903 35.17 175.327 35.17C177.531 35.17 180.077 35.74 182.965 36.88C185.853 38.02 187.525 38.59 187.981 38.59C188.893 38.59 189.349 37.83 189.349 36.31H191.971L193.111 50.788H190.603C190.071 47.368 188.551 44.556 186.043 42.352C183.611 40.148 180.077 39.046 175.441 39.046Z" fill="white"/>
<rect x="235" y="119" width="458" height="3" fill="#626061"/>
</svg>
